# xmcd
#
# Track frame offsets: 
#        150
#        62838
#        70372
#        102375
#        129227
#        192559
#        237817
#        253061
#
# Disc length: 4226 seconds
#
# Revision: 3
# Processed by: cddbd v1.5.2PL0 Copyright (c) Steve Scherf et al.
# Submitted via: ExactAudioCopy v0.95b4
#
DISCID=74108008
DTITLE=Keith Jarrett - Radiance [CD 2)
DYEAR=2002
DGENRE=Jazz
TTITLE0=Part 10
TTITLE1=Part 11
TTITLE2=Part 12
TTITLE3=Part 13
TTITLE4=Part 14
TTITLE5=Part 15
TTITLE6=Part 16
TTITLE7=Part 17
EXTD=YEAR: 2005
EXTT0=
EXTT1=
EXTT2=
EXTT3=
EXTT4=
EXTT5=
EXTT6=
EXTT7=
PLAYORDER=
